<svg width="20" height="20" viewBox="0 0 20 20" fill="none" xmlns="http://www.w3.org/2000/svg">
<path d="M10 20C4.47967 19.9939 0.00606237 15.5203 0 10V9.8C0.109931 4.30453 4.63459 -0.072041 10.1307 0.000882959C15.6268 0.0738069 20.0337 4.56889 19.9978 10.0653C19.9619 15.5618 15.4966 19.9989 10 20ZM9.984 18H10C14.4167 17.9956 17.9942 14.4127 17.992 9.99601C17.9898 5.57929 14.4087 2.00001 9.992 2.00001C5.57528 2.00001 1.99421 5.57929 1.992 9.99601C1.98979 14.4127 5.56729 17.9956 9.984 18ZM11 16H9V14H11V16ZM11 13H9C8.9684 11.6977 9.64614 10.4808 10.77 9.822C11.43 9.316 12 8.88 12 8C12 6.89543 11.1046 6 10 6C8.89543 6 8 6.89543 8 8H6V7.91C6.01608 6.48094 6.79333 5.16901 8.03897 4.4684C9.28461 3.76779 10.8094 3.78495 12.039 4.5134C13.2685 5.24186 14.0161 6.57094 14 8C13.9284 9.07902 13.3497 10.0603 12.44 10.645C11.6177 11.1612 11.0847 12.0328 11 13Z" fill="#22346C"/>
</svg>
