<svg width="40" height="40" viewBox="0 0 40 40" fill="none" xmlns="http://www.w3.org/2000/svg">
<g clip-path="url(#clip0)">
<path d="M1.57505 35.2681C1.12225 34.8705 0.729797 34.409 0.410052 33.8981C0.025052 33.2031 -0.264948 32.2681 0.410052 31.5781C1.41005 30.5231 3.41005 31.6181 3.41005 31.6181C3.41005 31.6181 6.41005 33.1981 8.57005 30.0081C10.7751 26.6981 12.8301 19.3181 14.5001 14.3681C16.1701 9.41813 19.8551 3.42313 27.5251 2.16813C35.1951 0.913132 39.2001 7.09313 39.2001 7.09313C39.2001 7.09313 41.2001 10.0931 39.3451 10.9831C38.3451 11.4431 37.6901 11.2481 35.7301 10.4831C35.0424 10.2381 34.3119 10.1366 33.5836 10.1848C32.8552 10.2329 32.1444 10.4298 31.4951 10.7631C29.7398 11.5668 28.3713 13.0288 27.6851 14.8331C26.6151 17.5431 24.2301 23.3731 20.9151 30.3331C17.7851 36.8981 10.8251 40.0731 4.23005 37.1531C3.24632 36.6769 2.34899 36.0398 1.57505 35.2681Z" fill="#EA7470"/>
<path d="M17.5702 20.6582C14.6102 25.8282 11.8002 29.1082 8.57019 30.0082C6.42019 33.1982 3.41019 31.6182 3.41019 31.6182C3.41019 31.6182 1.41019 30.5232 0.410187 31.5782C-0.239813 32.2682 0.0501869 33.2032 0.410187 33.8982C0.729932 34.409 1.12239 34.8705 1.57519 35.2682C2.34912 36.0399 3.24646 36.677 4.23019 37.1532C10.8252 40.0732 17.7852 36.8982 20.9152 30.3182C24.2302 23.3482 26.6152 17.5182 27.6852 14.8182C27.8275 14.4732 27.9946 14.139 28.1852 13.8182C28.1852 13.8182 21.9602 12.9982 17.5702 20.6582Z" fill="#22346C"/>
</g>
<defs>
<clipPath id="clip0">
<rect width="40" height="40" fill="white"/>
</clipPath>
</defs>
</svg>
