<svg width="42" height="42" viewBox="0 0 42 42" fill="none" xmlns="http://www.w3.org/2000/svg">
<path d="M0 8C0 3.58172 3.58172 0 8 0H34C38.4183 0 42 3.58172 42 8V34C42 38.4183 38.4183 42 34 42H8C3.58172 42 0 38.4183 0 34V8Z" fill="#EB5A5E"/>
<path d="M8.18243 19.8666C8.18243 21.123 7.18507 22.1203 5.89025 22.1203H4.71065V24.4148H3.38721V17.6129H5.89025C7.18507 17.6129 8.18243 18.6103 8.18243 19.8666ZM6.86863 19.8666C6.86863 19.2816 6.45625 18.8499 5.8904 18.8499H4.71079V20.8832H5.8904C6.45611 20.8833 6.86863 20.442 6.86863 19.8666Z" fill="white"/>
<path d="M11.6568 21.9958H10.6498V24.4151H9.32617V17.6129H12.0116C13.2487 17.6129 14.2461 18.6103 14.2461 19.8378C14.2461 20.6818 13.7188 21.4394 12.9514 21.7944L14.5006 24.4151H13.0717L11.6568 21.9958ZM10.6498 20.8353H12.0116C12.5103 20.8353 12.9227 20.3941 12.9227 19.8378C12.9227 19.2816 12.5103 18.8499 12.0116 18.8499H10.6498V20.8353Z" fill="white"/>
<path d="M15.3291 23.6358C15.3291 23.185 15.6936 22.8205 16.1442 22.8205C16.595 22.8205 16.9595 23.185 16.9595 23.6358C16.9595 24.0866 16.595 24.4509 16.1442 24.4509C15.6936 24.4509 15.3291 24.0866 15.3291 23.6358ZM15.3963 17.6129H16.8827L16.6334 22.0724H15.6552L15.3963 17.6129Z" fill="white"/>
<path d="M21.9831 24.4151L20.6243 22.1396L19.2729 24.4151H17.7769L19.8762 20.8832L17.9292 17.6129H19.4254L20.6243 19.6269L21.8231 17.6129H23.3192L21.3721 20.8737L23.4888 24.4151H21.9831Z" fill="white"/>
<path d="M28.9739 18.8788H27.1612V24.4149H25.8377V18.8788H24.0347V17.6129H28.9739V18.8788Z" fill="white"/>
<path d="M34.0388 23.0603V24.4151H29.8862V17.6129H33.9909V18.8788H31.2097V20.3078H33.7511V21.5546H31.2097V23.0603H34.0388Z" fill="white"/>
<path d="M39.094 23.0603V24.4151H35.2363V17.6129H36.5599V23.0603H39.094Z" fill="white"/>
</svg>
